<?xml version="1.0" encoding="utf-8"?>
<!-- Generator: Adobe Illustrator 25.4.1, SVG Export Plug-In . SVG Version: 6.00 Build 0)  -->
<svg version="1.1" id="Capa_1" xmlns="http://www.w3.org/2000/svg" xmlns:xlink="http://www.w3.org/1999/xlink" x="0px" y="0px"
	 viewBox="0 0 595.3 434.8" style="enable-background:new 0 0 595.3 434.8;" xml:space="preserve">
<style type="text/css">
	.st0{fill:#FEFEFE;}
	.st1{fill:#0C403F;}
	.st2{opacity:0.67;fill:#0C403F;}
	.st3{opacity:0.84;fill:#0C403F;}
	.st4{opacity:0.7;fill:#0C403F;}
	.st5{fill:#D6D6D3;}
</style>
<path class="st0" d="M163.5,90.9c3.4,3.9,6.2,3.9,10.1,1.5C197,78,220.7,63.8,244.2,49.5c13-7.9,26-15.9,39.3-24
	c-3-3.3-5.4-4-9.3-1.6c-20.8,12.8-41.8,25.4-62.7,38C195.6,71.5,179.7,81.1,163.5,90.9z"/>
<path class="st1" d="M301.9,36.2c36.5,22.2,73.1,44.3,109.6,66.4c2.3,1.4,3.4,2.8,3.4,5.8c-0.1,43.7-0.1,87.3,0,131
	c0,3.4-1,5.3-3.9,7.1c-35.7,21.5-71.2,43.2-106.9,64.7c-1.3,0.8-2.4,2.2-4.2,1.4c0.1-25,0.2-50.1,0.3-75.1c2.1-0.1,4.2-0.5,6.3-0.3
	c5.1,0.7,7.6-1.3,9.8-6.1c9.2-20.1,18.9-40,28.5-59.9c3.9-1.9,3,1.2,3.1,3c0.1,11.9,0,23.8,0.1,35.7c0,2-0.7,4.2,0.9,6
	c0.2,0.2,0.2,0.4,0.2,0.6c-0.1,12.4-0.1,24.9-0.2,37.3c-0.1,3.7,1.4,3.1,3.7,1.8c8.1-4.6,16.3-8.9,24.2-13.8
	c2.8-1.7,6.7-2.2,8.1-5.9c0-37.3,0-74.7-0.1-112c0.8-3.8-0.4-5.2-4.6-5.2c-15.6,0.2-31.2,0.2-46.9,0c-3.5,0-5.3,1.1-6.7,4.4
	c-4.1,9.9-8.7,19.5-12.9,29.3c-2.4,5.6-5.7,10.8-7.1,16.9l0,0.1c-0.7,0.1-0.8,0.5-0.8,1.1l-0.2,0.2c-0.2,0.3-0.4,0.5-0.6,0.8
	c-0.6,1.7-2,2.6-3.5,3.4c-1.8-1.2-1.3-3.1-1.3-4.8c0-43.2,0-86.4,0-129.6C300.2,38.9,299.3,36.8,301.9,36.2z"/>
<path class="st2" d="M300.2,237.6c-0.1,25-0.2,50.1-0.3,75.1c-7.9-2.4-14.2-7.8-21.1-12c-29.5-17.6-58.8-35.6-88.2-53.4
	c-3.5-2.1-5-4.5-5-8.8c0.2-43.1,0.1-86.2,0.1-129.3c0-1.8-0.7-3.9,1.2-5.4c8.7,7.2,18.2,13.1,28.4,17.8c0.1,0.7,0.2,1.4,0.4,2.1
	c-0.1,36.3-0.1,72.6-0.2,108.9c0,1.2-0.1,2.5,1.1,3.3c-0.6,1.1-0.5,1.7,0.8,2.4c10.5,5.8,20.9,11.6,31.3,17.5c2.9,1.6,2.9-0.1,2.9-2
	c-0.1-12.7-0.1-25.3-0.2-38c0-16.4,0-32.8,0-49.2c0.6-0.1,1.2-0.1,1.8-0.2c5.9,11.9,11.8,23.8,17.6,35.7c0.4,1.3,1.1,2.4,1.7,3.6
	c0.5,1.3,1.6,2.8,2.1,3.6c2.2,4.7,4.6,9.3,6.5,14.1c3.4,8.5,7.1,16.4,18.6,13.9C299.8,237.4,300,237.5,300.2,237.6z"/>
<path class="st3" d="M295.9,172.9c-0.7-1.2-1.4-2.3-2.1-3.5c-0.7-4.3-3.1-8-4.8-12c-5.4-12.6-10.9-25.1-16.4-37.7
	c-1-1.5-2.5-1.1-3.8-1.1c-16.5,0-32.9,0-49.4,0c-1.4,0-2.8-0.3-3.9,1.1c-0.1,0.7-0.1,1.4-0.2,2c-10.2-4.8-19.8-10.6-28.4-17.8
	c36.4-22.1,72.7-44.3,109.1-66.3c1.6-1,3.3-3.7,5.9-1.4c-2.6,0.6-1.8,2.7-1.8,4.3c0,43.2,0,86.4,0,129.6c0,1.6-0.5,3.4,1.1,4.7"/>
<path class="st1" d="M190.4,361.8c0,12.1-0.1,24.2,0.1,36.3c0.1,3.7-1.1,5.1-4.8,4.6c-1.4-0.2-2.8-0.1-4.2,0c-2,0-4,0.3-3.9-2.8
	c0.1-2.2-0.3-4.4,3.1-4.1c2,0.2,2.2-1.1,2.2-2.7c0-10.6,0-21.1,0-31.7c0-1.7-0.5-2.7-2.4-2.6c-3.5,0.3-2.8-2.2-2.8-4.3
	c-0.1-2.9,2.1-2.2,3.7-2.3c13.7-0.6,13.7-0.6,17.6,12.3c2.4,7.9,4.8,15.7,7.6,25c3.6-11.8,6.9-22.1,9.8-32.6c1-3.7,2.5-5.3,6.4-4.8
	c3,0.4,6,0.1,9,0.1c1.7,0,3.7-0.4,3.6,2.5c-0.1,1.9,0.6,4.2-2.5,4.1c-2.7-0.1-2.6,1.7-2.6,3.5c0,10,0,20.1,0,30.1
	c0,1.8-0.3,3.6,2.5,3.4c3.1-0.2,2.4,2.2,2.6,4c0.2,2.5-1.3,2.7-3.3,2.9c-9.3,0.6-9.3,0.7-9.3-8.4c0-11.2,0-22.4-0.9-33.7
	c-3.6,12.2-7.2,24.4-11,36.6c-0.7,2.2-0.1,5.6-4.2,5.6c-4,0-3.7-3.1-4.4-5.4c-3.7-11.9-7.3-23.8-11-35.6
	C191.2,361.7,190.8,361.7,190.4,361.8z"/>
<path class="st4" d="M486.1,387.6c0-3.7,0-7.4,0-11.1c0-2.9-0.6-5.9-3.7-6.9c-3.1-1-4.6,1.8-6.4,3.6c-1.7,1.8-2.7,4-2.7,6.6
	c0.1,4.2,0,8.4,0,12.7c0,2-0.1,3.8,2.8,4c2.7,0.2,1.5,2.7,1.6,4.2c0.1,2-1.5,2-3,2c-3.5,0-7,0-10.6,0c-1.7,0-3.3,0-3.2-2.3
	c0.1-1.6-1-3.8,1.9-4.1c2.6-0.3,2.3-2.2,2.3-3.9c0-5.1,0.1-10.2-0.1-15.3c-0.1-2.6,1.6-5.9-3.3-6.9c-1.6-0.3-2.2-4.6,0.2-5.5
	c3.2-1.3,7.6-2,10.1,0.4c2.4,2.3,3.1,1.4,5.2,0.2c6.2-3.8,10.2-3.4,14.6,2.3c2.7,3.4,3.3-0.2,4.1-0.8c6.2-5.2,12.2-5,16.3,0.6
	c1.4,1.9,1.4,3.9,1.5,6c0.1,6.3,0,12.7,0,19c0,2-0.2,3.8,2.7,4.1c2.7,0.2,1.6,2.6,1.7,4.2c0,1.8-1,2.2-2.7,2.4
	c-8.9,1-9.6,0.4-9.6-8.8c0-5.6,0-11.3,0-16.9c0-3.1,0.4-7.3-3.7-7.5c-3.3-0.2-6.7,2.5-7.5,6.2c-1.4,6-0.6,12.3-0.5,18.4
	c0,1.5,1.4,1.9,2.5,2.3c2.4,0.8,1.6,2.8,1.4,4.5c-0.2,1.9-1.8,1.8-3.2,1.9c-8.9,0.7-8.9,0.7-8.9-8.4
	C486.1,392.1,486.1,389.8,486.1,387.6z"/>
<path class="st1" d="M163.5,90.9c16.2-9.8,32.1-19.4,48-29.1c20.9-12.6,41.9-25.2,62.7-38c3.9-2.4,6.3-1.6,9.3,1.6
	c-13.2,8.1-26.2,16.1-39.3,24C220.7,63.8,197,78,173.6,92.5C169.6,94.9,166.9,94.9,163.5,90.9z"/>
<path class="st1" d="M317.2,323.3c15.7-9.5,30.9-18.8,46.2-28.1c21.5-13.1,43.1-26.1,64.6-39.3c3.8-2.4,6.1-0.8,8.8,1.9
	c-19.1,11.6-37.9,23.1-56.8,34.5c-17.8,10.8-35.8,21.5-53.5,32.6C322.8,327.2,320.3,327,317.2,323.3z"/>
<path class="st1" d="M161.3,398.4c-4,3.3-8.2,5.3-13.2,4.8c-6.2-0.5-10.3-4.3-11-10.1c-0.7-5.6,2.2-10.3,8.1-12
	c4.2-1.2,8.6-1.7,12.9-2.5c1.4-0.3,3.5,0.5,3.8-1.8c0.3-2.1,0-4.2-1.8-5.8c-3.6-3.2-10.9-2.5-12.8,1.9c-1.9,4.3-5,2.2-7.6,2.4
	c-1.6,0.2-1.2-1.4-1-2.3c0.8-3.4,2.7-6.1,5.9-7.6c5.7-2.7,11.5-3,17.4-0.8c5.2,2,7.5,6.1,7.6,11.5c0.1,5.4,0,10.9,0,16.3
	c0,1.9-0.3,3.9,2.7,4.1c2.8,0.1,1.7,2.5,1.8,4.1c0.1,2-1.5,2.4-2.9,2C167.8,401.8,162.6,405.6,161.3,398.4z M161.8,387.7
	c0.1-3.7,0-4-2.2-4.1c-6.7-0.4-14,3.4-14,7.5c-0.1,4,2.4,6.1,6.1,6.4C156.9,398,161.7,393.1,161.8,387.7z"/>
<path class="st1" d="M415.3,384.4c0,2.6,0,5.3,0,7.9c0,1.9-0.4,3.9,2.6,4.1c2.8,0.2,1.6,2.6,1.7,4.1c0.1,2-1.5,2.4-2.9,2
	c-3.1-1-7.9,3-9.6-3.2c-0.4-1.5-2.1,0.3-2.9,0.9c-3.8,2.8-8,3.5-12.5,2.6c-4.9-0.9-8.7-4.8-9.2-9.6c-0.5-5.3,1.6-9.2,6.5-11.5
	c4.4-2.1,9.2-2.2,13.8-3.1c1.7-0.3,4.3,0.7,4.5-2.3c0.2-2.6-0.6-4.8-3.1-6.2c-4.3-2.3-9.5-1.2-11.8,3.1c-2,3.8-5.5,2.5-7.6,1.7
	c-2-0.8-0.2-3.7,0.7-5.3c3.1-5.6,12.2-8,20.5-5.8c6.2,1.7,9.1,5.8,9.2,13.1C415.4,379.5,415.3,382,415.3,384.4z M404.8,383.7
	c-3.4,0.4-6.6,0.9-9.7,2.3c-3.1,1.4-4.8,3.8-3.6,7.1c1.2,3.3,4,4.8,7.5,4.3c5.1-0.8,8.9-5.7,8.7-10.9
	C407.6,384.5,407.2,383.1,404.8,383.7z"/>
<path class="st1" d="M99.8,377.6c0-5.1,0-10.2,0-15.3c0-1.9-0.1-3.5-2.6-3.6c-3.3-0.1-2-2.6-2.1-4.3c-0.2-2.5,1.7-2.2,3.2-2.2
	c3.9,0,7.7,0,11.6,0c1.5,0,3.5-0.3,3.1,2.2c-0.2,1.6,1.2,4.3-2.1,4.3c-3,0-2.8,2-2.8,4c0,9.8,0.1,19.7,0,29.5c0,2.8,1,3.8,3.7,3.6
	c1.6-0.1,3.2-0.1,4.7,0c4.9,0.4,9.3,0.3,7.9-6.8c-0.5-2.5,1.3-2.8,3.3-2.8c2.1,0,4,0,3.7,2.9c0,0.2,0,0.4,0,0.5
	c0.9,13,0.9,13-12.1,13c-6.9,0-13.7,0-20.6,0c-1.7,0-3.8,0.4-3.7-2.4c0.1-1.9-0.9-4.5,2.6-4.5c2.4,0,2.2-1.8,2.2-3.4
	C99.9,387.4,99.8,382.5,99.8,377.6z"/>
<path class="st1" d="M267.5,397.7c-3,1.8-5.1,3.5-7.5,4.5c-8.4,3.6-16-1.2-16.4-10.3c-0.2-5.8-0.1-11.6-0.1-17.4
	c0-2.1,0.4-4.2-2.8-4.5c-2.3-0.2-1.3-2.5-1.4-3.9c-0.1-1.6,1-2.1,2.4-2.1c0.5,0,1.1,0,1.6,0c8-0.3,8-0.3,8.1,7.6c0,6,0,12,0,17.9
	c0,3,0.5,5.7,3.6,6.9c3.1,1.2,5.9,0.3,8.3-1.8c2.4-2.2,4.1-4.9,4.1-8.2c0-4.2,0-8.4,0-12.7c0-1.7,0.3-3.6-2.5-3.6
	c-3-0.1-1.7-2.5-1.8-4c-0.2-2.1,1.4-2.1,2.8-2.1c0.9,0,1.8,0.1,2.6,0c4.9-0.8,6.9,0.8,6.5,6.1c-0.5,7.2-0.2,14.4-0.1,21.6
	c0,2-0.7,4.2,2.7,4.7c2.6,0.3,1.3,2.8,1.4,4.3c0.1,1.7-1.3,1.8-2.6,1.8c-1.6,0-3.2-0.2-4.8,0.1C268.3,403.1,266.8,401.8,267.5,397.7
	z"/>
<path class="st1" d="M291,397.8c-0.3,2.5,0.4,5.5-3.5,4.9c-3.9-0.6-1.9-3.4-2.3-5.4c-0.3-1.4-0.2-2.8,0-4.2c0.1-1.4-0.8-3.5,1.6-3.7
	c1.8-0.2,3.9-0.7,5,1.7c1.9,3.8,5.2,5.7,9.3,6.1c3.5,0.3,6.8-0.9,7.6-5c0.8-4.2-2.5-4.9-5.4-5.7c-2.5-0.7-5.2-0.9-7.8-1.4
	c-4.9-0.9-9.1-2.9-10.2-8.4c-0.9-4.3,0.1-8.1,3.7-10.8c4.5-3.3,9.4-3.6,14.5-1.2c1.9,0.8,3.4,3.9,5.8,0c0.8-1.3,4.9-1.9,4.8,2.5
	c0,1.2,0.2,2.5,0,3.7c-0.3,1.7,1.2,4.2-1.5,4.9c-2.2,0.5-4.2,0.2-5.7-2.4c-2.2-4.1-6.3-4.8-10.5-4.1c-2.4,0.4-4.3,1.6-4.5,4.4
	c-0.2,2.7,1.7,3.6,3.9,4.1c3.1,0.7,6.2,1.2,9.3,1.8c5.5,1,9.5,3.7,10.3,9.7c0.7,4.9-0.5,9.2-4.8,11.9c-4.9,3.1-10,2.9-15,0.2
	C294,400.5,292.8,399.2,291,397.8z"/>
<path class="st4" d="M447.2,402.8c-1.9,0-3.9,0-5.8,0c-1.5,0-3-0.1-3.1-2c-0.1-1.7-0.8-3.8,1.8-4.2c2.9-0.4,2.5-2.5,2.5-4.4
	c0.1-5.3,0.1-10.6,0-15.8c0-2.7,0.7-5.7-3.9-5.9c-1.9-0.1-1.7-2.4-1.6-3.9c0.1-1.4,0.4-3.1,2.3-2.9c4.1,0.5,3.2-2.3,3.1-4.4
	c-0.4-9.5,5.2-11.3,13.2-10.8c2.6,0.2,3.1,1.6,3.1,3.9c0,2.3-1.1,2.5-3,2.4c-3.1-0.1-4.7,1.2-5.1,4.6c-0.5,3.8,1.3,4.6,4.4,4.7
	c1.7,0.1,3,1.1,3,3c0,2-0.9,3.6-3.1,3.5c-4.3-0.2-4.3,2.5-4.2,5.5c0.1,4.4,0.1,8.8,0,13.2c-0.1,3.3-0.3,6.4,4.1,7.3
	c2.2,0.5,1.2,2.6,1.2,4c0,1.6-1,2.1-2.4,2.1C451.4,402.8,449.3,402.8,447.2,402.8C447.2,402.8,447.2,402.8,447.2,402.8z"/>
<path class="st1" d="M376.5,371.7c-1,1.9,2.5,6.6-3.6,6.3c-2.3-0.1-2.9-1.4-3.7-3.1c-1.7-3.9-4.9-5.5-8.9-5.1
	c-4.1,0.3-6.8,2.6-8.2,6.5c-1.7,4.8-1.7,9.7,0.3,14.4c1.3,3.3,3.7,5.5,7.5,5.9c4,0.4,7.2-1.1,8.6-4.7c1.6-4.2,4.8-2.9,7.5-2.8
	c2.4,0,1.2,1.9,0.8,3.1c-2.8,8.9-12.6,13.5-21.8,10.2c-7.9-2.8-13-11.7-12.2-21.3c0.8-9.8,6.9-16.4,15.9-17.7c2.3-0.4,4.6,0,6.7,0.8
	c2.4,0.9,4.3,4.2,7.2,0.2c0.8-1.1,4.2-0.6,3.9,2.8C376.4,368.5,376.5,369.9,376.5,371.7z"/>
<path class="st1" d="M333.1,380.4c0,3.9,0,7.7,0,11.6c0,2-0.6,4.3,2.7,4.6c2.3,0.2,1.3,2.5,1.4,3.9c0.2,1.9-1.1,2.3-2.7,2.3
	c-3.3-0.1-6.7,0-10,0c-1.5,0-3.5,0.4-3.4-2.1c0.1-1.7-1-4.1,2.3-4.2c2.5-0.1,2-1.9,2-3.4c0-5.8,0.1-11.6,0-17.4
	c0-2.3,1.2-5.3-3.3-5.6c-1.9-0.1-1.6-3.6-0.8-4.5c2.5-2.9,6.1-1,9.3-1.4c2.3-0.3,2.4,1.4,2.4,3.1C333.1,371.6,333.1,376,333.1,380.4
	z"/>
<path class="st1" d="M269.5,350.6c-5.1,3.4-6.6,11.1-14.6,9.8C256,350.5,258.8,348.5,269.5,350.6z"/>
<path class="st4" d="M423.8,397.9c-1.4-4.3,2-3.5,4.5-3.5c2,0,4.6-0.6,4.3,2.8c-0.3,3.3-0.6,6-5.3,5.7
	C423.7,402.7,423.4,401,423.8,397.9z"/>
<path class="st1" d="M324.9,354.2c-0.7-3.4,1-4,4.1-4.1c3.8-0.2,4.1,1.6,4.2,4.7c0.1,3.6-1.7,3.7-4.5,3.9
	C325.3,358.7,324.3,357.3,324.9,354.2z"/>
<path class="st5" d="M384.7,124c-9.9,4.5-19,10.6-28.3,16.2c-14.3,8.6-28.4,17.5-42.7,26.1c-2.2,1.3-4.4,3-7.2,3.1
	c1.4-6,4.6-11.3,7.1-16.9c4.3-9.8,8.8-19.5,12.9-29.3c1.4-3.3,3.1-4.4,6.7-4.4c15.6,0.2,31.2,0.2,46.9,0
	C384.2,118.7,385.5,120.2,384.7,124z"/>
<path class="st5" d="M349,216.6c10.1,4.8,19.6,10.8,29.2,16.5c2,1.2,3.8,3.2,6.5,2.9c-1.4,3.7-5.3,4.2-8.1,5.9
	c-7.9,4.9-16.1,9.2-24.2,13.8c-2.3,1.3-3.8,1.9-3.7-1.8C348.9,241.5,348.9,229.1,349,216.6z"/>
<path class="st5" d="M306.5,169.4c-0.2,0.4-0.5,0.7-0.8,1.1C305.7,170,305.8,169.5,306.5,169.4z"/>
<path class="st5" d="M305.6,170.8c-0.2,0.3-0.4,0.5-0.6,0.8C305.2,171.3,305.4,171.1,305.6,170.8z"/>
<path class="st5" d="M293.9,169.4c-11-5.1-20.8-12.1-31.2-18.1c-14.6-8.5-29-17.5-43.4-26.4c-1.1-0.7-2.2-0.9-3.5-1
	c-0.1-0.7-0.2-1.4-0.4-2.1c0.1-0.7,0.1-1.4,0.2-2c19-0.5,38-0.6,57,0.1c5.5,12.6,11,25.1,16.4,37.7
	C290.7,161.4,293.1,165.1,293.9,169.4z"/>
<path class="st5" d="M216.7,236.1c11.6-6.7,23.2-13.4,34.8-20.1c0.1,12.7,0.1,25.3,0.2,38c0,2,0,3.7-2.9,2
	c-10.4-5.9-20.8-11.7-31.3-17.5C216.2,237.8,216.1,237.2,216.7,236.1z"/>
<path class="st5" d="M272.7,119.8c-19-0.6-38-0.6-57-0.1c1-1.4,2.5-1.1,3.9-1.1c16.5,0,32.9,0,49.4,0
	C270.2,118.7,271.7,118.3,272.7,119.8z"/>
</svg>
